<svg xmlns="http://www.w3.org/2000/svg" width="1366" height="225" fill="none" viewBox="0 0 1366 225"><g clip-path="url(#a)" opacity=".5"><path fill="url(#b)" d="M1433.12 173.576v.727C928.367-277.11 423.617 339.637-81.132 54.858v-6.093C423.617 335.362 928.367-279.654 1433.12 173.576"/><path fill="url(#c)" d="M1433.12 182.248v.762C928.367-247.526 423.617 390.427-81.132 127.148v-6.249C423.617 386.03 928.367-250.07 1433.12 182.248"/><path fill="url(#d)" d="M1433.12 191.198v.762C928.367-217.232 423.617 442.446-81.132 201.151v-6.37c504.749 243.181 1009.499-414.626 1514.252-3.583"/><path fill="url(#e)" d="M1433.12 200.198v.779C928.366-186.368 423.617 495.415-81.133 276.556v-6.492c504.75 220.781 1009.499-459.08 1514.253-69.866"/><path fill="url(#f)" d="M413.447 321.028C753.333 199.853 1093.21-37.823 1433.11 209.374v.866C1097.46-32.682 761.83 197.326 426.203 321.028z"/><path fill="url(#g)" d="M539.498 321.028C837.363 184.274 1135.23 15.2 1433.11 218.67v.796c-294.85-200.302-589.7-35.573-884.537 101.562z"/><path fill="url(#h)" d="M636.494 321.028c265.53-135.975 531.066-262.552 796.616-92.993v.779c-263.05-166.945-526.102-43.294-789.139 92.214z"/><path fill="url(#i)" d="M718.947 321.028c238.052-128.186 476.093-224.935 714.163-83.593v.796c-235.87-139.126-471.726-44.54-707.591 82.797z"/><path fill="url(#j)" d="M792.525 321.028c213.515-116.934 427.045-191.352 640.585-74.159v.814c-211.56-115.341-423.1-42.515-634.644 73.345z"/></g><defs><linearGradient id="b" x1="1433.12" x2="-81.132" y1="87.522" y2="87.522" gradientUnits="userSpaceOnUse"><stop stop-color="#1b1b1f"/><stop offset=".5" stop-color="#252529"/><stop offset="1" stop-color="#1b1b1f"/></linearGradient><linearGradient id="c" x1="1433.12" x2="-81.132" y1="110.09" y2="110.09" gradientUnits="userSpaceOnUse"><stop stop-color="#1b1b1f"/><stop offset=".5" stop-color="#252529"/><stop offset="1" stop-color="#1b1b1f"/></linearGradient><linearGradient id="d" x1="1433.12" x2="-81.132" y1="154.204" y2="154.204" gradientUnits="userSpaceOnUse"><stop stop-color="#1b1b1f"/><stop offset=".5" stop-color="#252529"/><stop offset="1" stop-color="#1b1b1f"/></linearGradient><linearGradient id="e" x1="1433.12" x2="-81.133" y1="199.146" y2="199.146" gradientUnits="userSpaceOnUse"><stop stop-color="#1b1b1f"/><stop offset=".5" stop-color="#252529"/><stop offset="1" stop-color="#1b1b1f"/></linearGradient><linearGradient id="f" x1="1433.11" x2="413.447" y1="211.167" y2="211.167" gradientUnits="userSpaceOnUse"><stop stop-color="#1b1b1f"/><stop offset=".5" stop-color="#252529"/><stop offset="1" stop-color="#1b1b1f"/></linearGradient><linearGradient id="g" x1="1433.11" x2="539.498" y1="222.707" y2="222.707" gradientUnits="userSpaceOnUse"><stop stop-color="#1b1b1f"/><stop offset=".5" stop-color="#252529"/><stop offset="1" stop-color="#1b1b1f"/></linearGradient><linearGradient id="h" x1="1433.11" x2="636.494" y1="233.768" y2="233.768" gradientUnits="userSpaceOnUse"><stop stop-color="#1b1b1f"/><stop offset=".5" stop-color="#252529"/><stop offset="1" stop-color="#1b1b1f"/></linearGradient><linearGradient id="i" x1="1433.11" x2="718.947" y1="244.346" y2="244.346" gradientUnits="userSpaceOnUse"><stop stop-color="#1b1b1f"/><stop offset=".5" stop-color="#252529"/><stop offset="1" stop-color="#1b1b1f"/></linearGradient><linearGradient id="j" x1="1433.11" x2="792.525" y1="254.43" y2="254.43" gradientUnits="userSpaceOnUse"><stop stop-color="#1b1b1f"/><stop offset=".5" stop-color="#252529"/><stop offset="1" stop-color="#1b1b1f"/></linearGradient><clipPath id="a"><path fill="#fff" d="M0 0h1366v321.029H0z"/></clipPath></defs></svg>