<svg xmlns="http://www.w3.org/2000/svg" width="1366" height="201" fill="none"><g clip-path="url(#a)" opacity=".5"><path fill="url(#b)" d="M-81.133 35.705v-.694C647.42 466.254 1375.97-122.937 2104.53 149.118v5.822C1375.97-118.852 647.42 468.652-81.133 35.705"/><path fill="url(#c)" d="M-81.133 27.42v-.727C647.42 437.992 1375.97-171.457 2104.53 80.075v5.97C1375.97-167.257 647.42 440.423-81.133 27.42"/><path fill="url(#d)" d="M-81.133 18.92v-.727C647.42 409.052 1375.97-221.151 2104.53 9.362v6.086C1375.97-216.868 647.42 411.549-81.133 18.92"/><path fill="url(#e)" d="M-81.133 10.271v-.744C647.42 379.549 1375.97-271.756 2104.53-62.675v6.202C1375.97-267.39 647.42 382.096-81.133 10.27"/><path fill="url(#f)" d="M-81.133 1.49V.746C647.42 349.65 1375.97-323.071 2104.53-135.736v6.267C1375.97-318.672 647.42 352.23-81.133 1.49"/><path fill="url(#g)" d="M-81.133-7.424v-.76C647.42 319.453 1375.97-374.95 2104.53-209.56v6.301C1375.97-370.5 647.42 322.032-81.133-7.424"/><path fill="url(#h)" d="M-81.133-16.337v-.744C647.42 288.99 1375.97-427.206 2104.53-283.977v6.367C1375.97-422.741 647.421 291.604-81.133-16.337"/><path fill="url(#i)" d="M-81.133-25.317v-.76C647.42 258.396 1375.97-479.73 2104.53-358.726v6.383C1375.97-475.231 647.421 261.01-81.133-25.317"/><path fill="url(#j)" d="M-81.133-34.33v-.777C647.42 227.737 1375.97-532.367 2104.53-433.656v6.4C1375.97-527.869 647.421 230.35-81.133-34.33"/><path fill="url(#k)" d="M-81.133-43.36v-.776C647.42 197.06 1375.97-585.005 2104.53-508.504v6.384C1375.97-580.507 647.421 199.69-81.133-43.36"/><path fill="url(#l)" d="M-81.133-52.339v-.777C647.42 166.483 1375.97-637.495 2104.53-583.318v6.383C1375.97-633.03 647.421 169.079-81.133-52.339"/><path fill="url(#m)" d="M-81.133-61.286v-.71C647.42 136.053 1375.97-689.754 2104.53-657.67v6.317C1375.97-685.287 647.421 138.634-81.133-61.286"/><path fill="url(#n)" d="M-81.133-70.15v-.777C647.42 105.857 1375.97-741.564 2104.53-731.459v6.317C1375.97-737.165 647.421 108.337-81.133-70.15"/><path fill="url(#o)" d="M-81.133-78.947v-.761C647.42 75.99 1375.97-792.846 2104.53-804.521v6.185C1375.97-788.497 647.421 78.57-81.133-78.947"/><path fill="url(#p)" d="M-81.133-87.63v-.727C532.825 25.32 1146.78-588.76 1760.71-804.521h15.27C1156.94-595.258 537.91 28.496-81.133-87.629"/></g><defs><linearGradient id="b" x1="1521" x2="-117" y1="117.907" y2="117.907" gradientUnits="userSpaceOnUse"><stop stop-color="#1b1b1f"/><stop offset=".5" stop-color="#252529"/><stop offset="1" stop-color="#1b1b1f"/></linearGradient><linearGradient id="c" x1="1505" x2="-141" y1="96.359" y2="96.359" gradientUnits="userSpaceOnUse"><stop stop-color="#1b1b1f"/><stop offset=".5" stop-color="#252529"/><stop offset="1" stop-color="#1b1b1f"/></linearGradient><linearGradient id="d" x1="1543" x2="-179" y1="54.222" y2="54.222" gradientUnits="userSpaceOnUse"><stop stop-color="#1b1b1f"/><stop offset=".5" stop-color="#252529"/><stop offset="1" stop-color="#1b1b1f"/></linearGradient><linearGradient id="e" x1="1479" x2="-127" y1="11.276" y2="11.276" gradientUnits="userSpaceOnUse"><stop stop-color="#1b1b1f"/><stop offset=".5" stop-color="#252529"/><stop offset="1" stop-color="#1b1b1f"/></linearGradient><linearGradient id="f" x1="1369" x2="-81.133" y1="-32.303" y2="-32.303" gradientUnits="userSpaceOnUse"><stop stop-color="#1b1b1f"/><stop offset=".5" stop-color="#252529"/><stop offset="1" stop-color="#1b1b1f"/></linearGradient><linearGradient id="g" x1="2104.53" x2="-81.133" y1="-76.374" y2="-76.374" gradientUnits="userSpaceOnUse"><stop stop-color="#1b1b1f"/><stop offset=".5" stop-color="#252529"/><stop offset="1" stop-color="#1b1b1f"/></linearGradient><linearGradient id="h" x1="2104.53" x2="-81.133" y1="-120.796" y2="-120.796" gradientUnits="userSpaceOnUse"><stop stop-color="#1b1b1f"/><stop offset=".5" stop-color="#252529"/><stop offset="1" stop-color="#1b1b1f"/></linearGradient><linearGradient id="i" x1="2104.53" x2="-81.133" y1="-165.453" y2="-165.453" gradientUnits="userSpaceOnUse"><stop stop-color="#1b1b1f"/><stop offset=".5" stop-color="#252529"/><stop offset="1" stop-color="#1b1b1f"/></linearGradient><linearGradient id="j" x1="2104.53" x2="-81.133" y1="-210.24" y2="-210.24" gradientUnits="userSpaceOnUse"><stop stop-color="#1b1b1f"/><stop offset=".5" stop-color="#252529"/><stop offset="1" stop-color="#1b1b1f"/></linearGradient><linearGradient id="k" x1="2104.53" x2="-81.133" y1="-255.018" y2="-255.018" gradientUnits="userSpaceOnUse"><stop stop-color="#1b1b1f"/><stop offset=".5" stop-color="#252529"/><stop offset="1" stop-color="#1b1b1f"/></linearGradient><linearGradient id="l" x1="2104.53" x2="-81.133" y1="-299.766" y2="-299.766" gradientUnits="userSpaceOnUse"><stop stop-color="#1b1b1f"/><stop offset=".5" stop-color="#252529"/><stop offset="1" stop-color="#1b1b1f"/></linearGradient><linearGradient id="m" x1="2104.53" x2="-81.133" y1="-344.275" y2="-344.275" gradientUnits="userSpaceOnUse"><stop stop-color="#1b1b1f"/><stop offset=".5" stop-color="#252529"/><stop offset="1" stop-color="#1b1b1f"/></linearGradient><linearGradient id="n" x1="2104.53" x2="-81.133" y1="-388.47" y2="-388.47" gradientUnits="userSpaceOnUse"><stop stop-color="#1b1b1f"/><stop offset=".5" stop-color="#252529"/><stop offset="1" stop-color="#1b1b1f"/></linearGradient><linearGradient id="o" x1="2104.53" x2="-81.133" y1="-432.173" y2="-432.173" gradientUnits="userSpaceOnUse"><stop stop-color="#1b1b1f"/><stop offset=".5" stop-color="#252529"/><stop offset="1" stop-color="#1b1b1f"/></linearGradient><linearGradient id="p" x1="1775.98" x2="-81.133" y1="-438.932" y2="-438.932" gradientUnits="userSpaceOnUse"><stop stop-color="#1b1b1f"/><stop offset=".5" stop-color="#252529"/><stop offset="1" stop-color="#1b1b1f"/></linearGradient><clipPath id="a"><path fill="#fff" d="M0-88.38h1366v288.927H0z"/></clipPath></defs></svg>